<svg xmlns="http://www.w3.org/2000/svg" >
	<symbol id="stamp" viewBox="0 0 82.22 82.5">
		<path class="cls-1" d="M76.35,11.79a5.89,5.89,0,0,1,5.87-5.9L76.35,0a5.88,5.88,0,0,1-5.87,5.89A5.89,5.89,0,0,1,64.6,0H61.67a5.89,5.89,0,0,1-5.88,5.89A5.88,5.88,0,0,1,49.92,0H47A5.87,5.87,0,1,1,35.24,0H32.3A5.87,5.87,0,1,1,20.56,0H17.62a5.88,5.88,0,0,1-5.87,5.89A5.89,5.89,0,0,1,5.87,0L0,5.89a5.89,5.89,0,0,1,5.87,5.9A5.88,5.88,0,0,1,0,17.68v2.94a5.89,5.89,0,0,1,5.87,5.9A5.88,5.88,0,0,1,0,32.41v3a5.88,5.88,0,0,1,5.87,5.89A5.88,5.88,0,0,1,0,47.14v3A5.88,5.88,0,0,1,5.87,56,5.88,5.88,0,0,1,0,61.87v2.95a5.88,5.88,0,0,1,5.87,5.89A5.89,5.89,0,0,1,0,76.61L5.87,82.5a5.88,5.88,0,1,1,11.75,0h2.94a5.87,5.87,0,1,1,11.74,0h2.94A5.87,5.87,0,1,1,47,82.5h2.94a5.88,5.88,0,1,1,11.75,0H64.6a5.88,5.88,0,1,1,11.75,0l5.87-5.89a5.9,5.9,0,0,1,0-11.79V61.87a5.89,5.89,0,0,1,0-11.78v-3a5.89,5.89,0,0,1,0-11.78v-3a5.9,5.9,0,0,1,0-11.79V17.68A5.88,5.88,0,0,1,76.35,11.79ZM70.48,70.71H11.75V11.79H70.48Z"/>
	</symbol>
</svg>