<svg xmlns="http://www.w3.org/2000/svg">
	<symbol id="envelop" viewBox="0 0 90.67 68">
		<path class="cls-1" d="M84.2,1.14l-.07-.07,0,0A11.25,11.25,0,0,0,79.33,0h-68A11.28,11.28,0,0,0,7,.88L6.85.77l-.35.36A11.3,11.3,0,0,0,0,11.33V56.67A11.34,11.34,0,0,0,11.33,68h68A11.35,11.35,0,0,0,90.67,56.67V11.33A11.32,11.32,0,0,0,84.2,1.14ZM63.35,31.88,83.11,12.62V51.13ZM77.48,7.56l-29,28.22a4.2,4.2,0,0,1-5.76,0L13.81,7.56ZM7.56,51.78V12L27.72,31.67Zm3.77,8.66a3.65,3.65,0,0,1-1.47-.3L33.14,37l4.34,4.23a11.75,11.75,0,0,0,16.32,0l4.14-4,23.3,22.69a3.68,3.68,0,0,1-1.91.59Z"/>
	</symbol>
</svg>