<svg xmlns="http://www.w3.org/2000/svg">
	<symbol id="silhouette" viewBox="0 0 83.34 83.33">
		<path class="cls-1" d="M41.34,0A24.92,24.92,0,0,0,27.41,4.14c-3.74,2.6-6.52,6.62-6.55,11.31l0-.29s0,.31,0,.33v.14c-.05.36-.34,2.4-.5,5.44A35.86,35.86,0,0,0,21,31.82a83.47,83.47,0,0,0,4.92,12.26c.95,2.06,1.13,2.39,1.81,3.8L2.53,58.67a4.17,4.17,0,0,0-2.53,4V79.17a4.17,4.17,0,0,0,4.17,4.16h75a4.17,4.17,0,0,0,4.17-4.16V62.61a4.18,4.18,0,0,0-2.53-3.94L55.63,47.88c.68-1.42.86-1.76,1.82-3.84a85.53,85.53,0,0,0,4.92-12.32A36.15,36.15,0,0,0,63,20.92c-.18-3.31-.54-6-.54-6-.21-4.54-3-8.41-6.65-10.92A25.14,25.14,0,0,0,41.69,0h-.35Zm.09,8.33h.24a17.23,17.23,0,0,1,9.44,2.61c2.2,1.5,3.06,3.1,3.06,4.59a3.52,3.52,0,0,0,0,.56s.31,2.32.47,5.27a35.1,35.1,0,0,1-.38,8.29,98,98,0,0,1-4.42,10.92c-1.87,4.08-3.57,7.48-3.59,7.53l0,0a1.36,1.36,0,0,0-.1.21A4,4,0,0,0,46,49L46,49a.5.5,0,0,0,0,.12,1.4,1.4,0,0,0-.06.28,3.71,3.71,0,0,0,0,.47,4.73,4.73,0,0,0,0,.53c0,.09,0,.19,0,.28v.06l0,.11a2.8,2.8,0,0,0,.06.28,3.93,3.93,0,0,0,.2.54.47.47,0,0,0,.05.1,2.7,2.7,0,0,0,.3.52l.06.11.12.15.08.1.13.15.14.14.06.07.2.18.06,0,.22.16a4.8,4.8,0,0,0,.54.32l.21.09.15.07L75,65.25V75H8.34V65.25L35,53.83l.21-.1a4.1,4.1,0,0,0,1.36-1.08,2.64,2.64,0,0,0,.21-.29,2.9,2.9,0,0,0,.19-.29c.06-.1.11-.21.16-.31A4.12,4.12,0,0,0,37.38,49a3.63,3.63,0,0,0-.21-.66,1.39,1.39,0,0,0-.11-.21L37,48v0c-.06-.11-1.7-3.4-3.55-7.42A98.13,98.13,0,0,1,29,29.74a34.42,34.42,0,0,1-.38-8.21c.16-2.94.47-5.25.47-5.25a4.08,4.08,0,0,0,0-.61v-.14c0-1.47.83-3,3-4.54A17,17,0,0,1,41.43,8.33Z"/>
	</symbol>
</svg>