<svg xmlns="http://www.w3.org/2000/svg">
	<symbol id="news" viewBox="0 0 97.63 76.64">
		<path class="cls-1" d="M13.57,76.64A13.6,13.6,0,0,1,0,63.07v-39a3,3,0,0,1,6,0v39a7.53,7.53,0,0,0,7.56,7.28h.26A7.58,7.58,0,0,0,21.13,63V3a3,3,0,0,1,3-3h70.5a3,3,0,0,1,3,3V64.85A11.79,11.79,0,0,1,85.86,76.64Zm72.25-6a5.78,5.78,0,0,0,5.78-5.78V6H27.14V63.07a13.51,13.51,0,0,1-2.31,7.57ZM13.57,66a3,3,0,0,1-3-3V24.49a3,3,0,0,1,6,0V63A3,3,0,0,1,13.57,66ZM37.49,62.9a3,3,0,0,1,0-6h43.8a3,3,0,0,1,0,6Zm0-10.86a3,3,0,0,1,0-6H50.67a3,3,0,0,1,0,6Zm24.33,0a3,3,0,0,1-3-3V27.32a3,3,0,0,1,3-3H81.29a3,3,0,0,1,3,3V49a3,3,0,0,1-3,3Zm16.47-6V30.31H64.82V46Zm-40.8-4.84a3,3,0,0,1,0-6H50.67a3,3,0,0,1,0,6Zm0-10.86a3,3,0,0,1,0-6H50.67a3,3,0,0,1,0,6Zm0-10.89a3,3,0,0,1,0-6h43.8a3,3,0,0,1,0,6Z"/>
		<path class="cls-1" d="M83.29,16.43a2,2,0,0,1-2,2H37.49a2,2,0,0,1,0-4h43.8A2,2,0,0,1,83.29,16.43ZM37.49,29.32H50.67a2,2,0,0,0,0-4H37.49a2,2,0,0,0,0,4Zm0,10.86H50.67a2,2,0,0,0,0-4H37.49a2,2,0,0,0,0,4Zm0,10.86H50.67a2,2,0,0,0,0-4H37.49a2,2,0,0,0,0,4Zm43.8,6.86H37.49a2,2,0,0,0,0,4h43.8a2,2,0,0,0,0-4Zm2-30.59V49a2,2,0,0,1-2,2H61.82a2,2,0,0,1-2-2V27.32a2,2,0,0,1,2-2H81.29a2,2,0,0,1,2,2Zm-4,2H63.82V47H79.29ZM1,63.07v-39a2,2,0,0,1,4,0v39a8.57,8.57,0,0,0,17.13,0V3a2,2,0,0,1,2-2h70.5a2,2,0,0,1,2,2V64.85A10.78,10.78,0,0,1,85.86,75.64H13.57A12.59,12.59,0,0,1,1,63.07Zm21.75,8.57H85.82a6.79,6.79,0,0,0,6.78-6.78V5H26.14V63.07a12.51,12.51,0,0,1-3.38,8.57ZM11.57,24.49V63a2,2,0,1,0,4,0V24.49a2,2,0,0,0-4,0Z"/>
	</symbol>
</svg>