<!--
	Icône pour le bouton d'affichage en grille
	Auteur: Yo! Baba from the Noun Project
	Source: https://thenounproject.com/search/?q=grid&i=887266
-->
<svg xmlns="http://www.w3.org/2000/svg">
	<symbol id="grid-icon" viewBox="0 0 1080 1080">
		<path d="M288,215a72.94,72.94,0,0,1-73,73H73A72.94,72.94,0,0,1,0,215V73A72.94,72.94,0,0,1,73,0H215a72.94,72.94,0,0,1,73,73Z"/>
		<path d="M288,611a72.94,72.94,0,0,1-73,73H73A72.94,72.94,0,0,1,0,611V469a72.94,72.94,0,0,1,73-73H215a72.94,72.94,0,0,1,73,73Z"/>
		<path d="M288,1007a72.94,72.94,0,0,1-73,73H73a72.94,72.94,0,0,1-73-73V865a73,73,0,0,1,73-73H215a72.94,72.94,0,0,1,73,73Z"/>
		<path d="M684,215a72.94,72.94,0,0,1-73,73H469a72.94,72.94,0,0,1-73-73V73A72.94,72.94,0,0,1,469,0H611a72.94,72.94,0,0,1,73,73Z"/>
		<path d="M684,611a72.94,72.94,0,0,1-73,73H469a72.94,72.94,0,0,1-73-73V469a72.94,72.94,0,0,1,73-73H611a72.94,72.94,0,0,1,73,73Z"/>
		<path d="M684,1007a72.94,72.94,0,0,1-73,73H469a72.94,72.94,0,0,1-73-73V865a73,73,0,0,1,73-73H611a72.94,72.94,0,0,1,73,73Z"/>
		<path d="M1080,215a72.94,72.94,0,0,1-73,73H865a73,73,0,0,1-73-73V73A72.94,72.94,0,0,1,865,0h142a73,73,0,0,1,73,73Z"/>
		<path d="M1080,611a72.94,72.94,0,0,1-73,73H865a73,73,0,0,1-73-73V469a72.94,72.94,0,0,1,73-73h142a73,73,0,0,1,73,73Z"/>
		<path d="M1080,1007a72.94,72.94,0,0,1-73,73H865a73,73,0,0,1-73-73V865a73,73,0,0,1,73-73h142a73,73,0,0,1,73,73Z"/>
	</symbol>
</svg>