<?xml version="1.0" encoding="UTF-8" standalone="no"?>
<!--
	Ornement du titre principal
	Source: https://all-free-download.com/free-vector/
-->
<svg xmlns="http://www.w3.org/2000/svg">
	<symbol id="ornement-01" viewBox="0 0 286.51 20.94">
		<path d="M138 4.57s2.89-1.77 4.65 1c-1.1-1.94.63-3.78.93-5.62.25 1.9 1.84 3.79.63 5.66a3.45 3.45 0 014.47-1.36c-3.82 1.31-5.41 7.54-5.41 7.54S142.1 5.71 138 4.57zM141.07 12.57c-1.4-3.57-6.8-7.57-13.61-6.66l-1.25.34c6.88-.84 13 2.52 14.36 6 1.07 2.72-.68 5.09-2.76 6.14a4.68 4.68 0 01-5.75-.77 2.83 2.83 0 01-.72-3.46 3.73 3.73 0 013.37-2 2.11 2.11 0 011.86 1.27 1.16 1.16 0 01-.61 1.41c-.47.27-1.48.52-1.83-.25-.13-.27.23-.51.49-.43s.8.24.94-.22-.84-1-1.52-.39a1 1 0 00.33 1.53 1.77 1.77 0 001.86 0 1.27 1.27 0 00.67-1.6 2.57 2.57 0 00-2.19-1.5 3.91 3.91 0 00-3.59 2.09 3.21 3.21 0 00.58 3.86 5.48 5.48 0 006.51 1c2.16-1.06 3.98-3.53 2.86-6.36z"/>
		<path d="M134.61 6.83c-11.7-5.48-28.8 5.61-40.8 6.8-15.3 1.51-18.56.29-27.13-11 1.19 4.35 2.51 6.46 5 8.21a5.18 5.18 0 00-5.28.23c6.73-.36 6.67 9.4 15.84 6.2A7.36 7.36 0 0177.16 19c9.46 6.08 24.3-3.39 30.75-7.69a19.27 19.27 0 01-11.29 7.09c7.84 1.22 15.49-3.22 17-6.42.5 5.12 6.77 8 11.79 4.2-5.25 1.07-8.27-2.56-6.37-6.23 1.32-2.6 7.62-4.55 15.57-3.12zM1.52 12.83h39.3v.78H1.52z"/>
		<path d="M0 13.09a1.78 1.78 0 101.78-1.78A1.79 1.79 0 000 13.09zM44.75 7.94c1.45.83 1.68 3.12 0 3.8-1.88.74-3.48-1.72-1.62-2.14a1.8 1.8 0 00-2.53.47c-.32.49-.24 2 .94 3.48 4.46 5.45 13.57-.23 15.9-1.63 5-3 10.67-5.45 14.55-.79l-.39.25C68 7.06 63.7 9.63 58.73 12.6a38.64 38.64 0 01-8.19 3.62c-2.76.81-6.94.38-9.22-1.95-4.1-3.9.22-8.16 3.43-6.33z"/>
		<path d="M61.56 13.92c2.74.24 2.88-3.06 1.43-3.62-4.33-1.65-7.37 4.66-5.07 8.32 0 0-2.32-5.22 3.64-4.7zM145.44 12.28c1.41-3.57 6.8-7.57 13.61-6.66l1.26.34c-6.88-.84-13 2.52-14.37 6-1.07 2.72.68 5.08 2.76 6.14a4.69 4.69 0 005.76-.78 2.82 2.82 0 00.71-3.45 3.73 3.73 0 00-3.37-2 2.12 2.12 0 00-1.86 1.27 1.17 1.17 0 00.61 1.41c.47.26 1.48.52 1.84-.25.13-.28-.24-.51-.5-.43s-.8.24-.94-.23.85-1 1.52-.38a1 1 0 01-.33 1.52 1.75 1.75 0 01-1.85 0 1.3 1.3 0 01-.68-1.61 2.59 2.59 0 012.2-1.5 4 4 0 013.59 2.1 3.23 3.23 0 01-.59 3.86 5.47 5.47 0 01-6.5 1c-2.17-1.05-3.99-3.52-2.87-6.35z"/>
		<path d="M151.91 6.54c11.69-5.48 28.79 5.61 40.79 6.8 15.3 1.51 18.57.29 27.13-11-1.19 4.35-2.5 6.45-5 8.21a5.18 5.18 0 015.28.23c-6.73-.36-6.66 9.4-15.84 6.2a7.43 7.43 0 005.07 1.73c-9.45 6.08-24.3-3.39-30.75-7.69a19.31 19.31 0 0011.29 7.13c-7.84 1.21-15.49-3.22-17-6.42-.5 5.12-6.77 8-11.79 4.2 5.25 1.07 8.27-2.57 6.37-6.23-1.31-2.64-7.6-4.59-15.55-3.16zM245.7 12.54h39.29v.78H245.7z"/>
		<path d="M286.51 12.8a1.78 1.78 0 11-1.78-1.8 1.78 1.78 0 011.78 1.8zM241.77 7.64c-1.45.84-1.69 3.13 0 3.8s3.47-1.71 1.61-2.13a1.79 1.79 0 012.53.47c.33.49.24 2-.94 3.48-4.46 5.48-13.61-.23-15.94-1.63-5-3-10.67-5.45-14.55-.79l.4.25c3.6-4.33 7.89-1.75 12.86 1.22a39.15 39.15 0 008.26 3.62c2.76.8 6.94.38 9.23-1.95 4.07-3.91-.23-8.16-3.46-6.34z"/>
		<path d="M225 13.63c-2.74.24-2.87-3.06-1.42-3.62 4.32-1.66 7.36 4.65 5.07 8.31-.05 0 2.27-5.21-3.65-4.69z"/>
	</symbol>

	<symbol id="ornement-02" viewBox="0 0 291.18 28.14">
		<path d="M143.28,5.13C145,3.41,145.2,2.4,145.59,0c.29,1.75.69,3.78,2.15,5s3.17,1.81,3.2,4S149,12,147.68,13.12s-1.8,3.16-2.09,4.91c-.39-2.4-.52-3.24-2.22-5-1.26-1.27-3.35-1.25-3.35-3.82S142,6.4,143.28,5.13Z"/>
		<path d="M44,18.83c1.69-7,9.4-6.46,10.85-6.48,5.06-.06,12.29,3,20.54,6.36,13.52,5.42,23.82,12.85,46-6.58.16.11.28.1.36.43C110.49,22.74,102.55,25,99.46,25.46,89.81,26.88,81.34,23.88,73,20.15c-4-1.78-8-4.32-12.25-5.4-3-.77-9.61-1.71-12.57,0A8.13,8.13,0,0,0,45,19.15a7,7,0,0,0,1.15,6.21,7,7,0,0,0,5.64,2.47,5.48,5.48,0,0,0,3.67-3,2.07,2.07,0,0,0,0-1.89,1.89,1.89,0,0,1,0,.82,2.34,2.34,0,0,1-2.77,1.59,2.1,2.1,0,0,1-1.75-2.49,2.34,2.34,0,0,1,2.76-1.6,2.67,2.67,0,0,1,1.78,1.2,2.75,2.75,0,0,1,.25,2.45,5.57,5.57,0,0,1-3.87,3.13A6.74,6.74,0,0,1,45.58,26C44,24.21,43.14,22.44,44,18.83Z"/>
		<rect x="0.54" y="20.57" width="35.83" height="0.71"/>
		<path d="M3.24,21a1.62,1.62,0,1,1-1.62-1.62A1.61,1.61,0,0,1,3.24,21Z"/>
		<path d="M93.6,11.84c3.8-2.42,8.9,1.35,4.57,4.63.56-1.65,1.94-3.46-1.57-4.22-3.62-.05-4.91,6.09-.09,7,3.23.63,6.34-1.08,7.41-1.59,4.31-2.05,8.92-5.5,13.52-6.79,9.63-2.7,24.24,1.34,28.14,8.34C142.75,16,136.26,12.06,130,12c-2.67.14-4.61,1.53-5.16,3.12-.47,1.35-.36,3.18,1.45,3.58,2.58.59,2.11-2.57.87-1.49,0-.93,1.55-.7,1.78.52a1.92,1.92,0,0,1-1.45,2,5.06,5.06,0,0,1-6-2.13,4.87,4.87,0,0,1-.2-4.5c-6.18,1.73-10.43,5.64-14.66,7.54-3.33,1.5-8.15,1.81-11.37,0C90.83,18.21,90.65,13.72,93.6,11.84Z"/>
		<path d="M38.66,18.71c1.27-1.25,1.25-3.34,3.83-3.34a3.45,3.45,0,0,1,.67.07,8.2,8.2,0,0,0-1.88,5.23,8.11,8.11,0,0,0,2.16,5.52,3.67,3.67,0,0,1-.76.1c-2.19,0-2.92-1.93-4.08-3.26s-3.15-1.81-4.91-2.1C36.1,20.54,36.93,20.41,38.66,18.71Z"/>
		<path d="M29,21.15a1.72,1.72,0,1,0,1.72-1.72A1.72,1.72,0,0,0,29,21.15Z"/>
		<path d="M25.53,21.15a1.29,1.29,0,1,0,1.28-1.29A1.28,1.28,0,0,0,25.53,21.15Z"/>
		<path d="M247.17,18.83c-1.68-7-9.39-6.46-10.84-6.48-5.07-.06-12.3,3-20.54,6.36-13.53,5.42-23.82,12.85-46-6.58-.16.11-.28.1-.36.43,11.27,10.18,19.21,12.45,22.3,12.9,9.64,1.42,18.11-1.58,26.48-5.31,4-1.78,8-4.32,12.25-5.4,3-.77,9.61-1.71,12.58,0a8.13,8.13,0,0,1,3.16,4.36A7,7,0,0,1,245,25.36c-1.16,1.42-3.64,2.77-5.63,2.47a5.49,5.49,0,0,1-3.68-3,2,2,0,0,1,0-1.89,1.75,1.75,0,0,0,0,.82,2.33,2.33,0,0,0,2.76,1.59,2.1,2.1,0,0,0,1.76-2.49,2.34,2.34,0,0,0-2.76-1.6,2.71,2.71,0,0,0-1.79,1.2,2.75,2.75,0,0,0-.24,2.45,5.57,5.57,0,0,0,3.86,3.13A6.76,6.76,0,0,0,245.61,26C247.23,24.21,248,22.44,247.17,18.83Z"/>
		<rect x="254.81" y="20.57" width="35.83" height="0.71"/>
		<path d="M287.94,21a1.62,1.62,0,1,0,1.62-1.62A1.62,1.62,0,0,0,287.94,21Z"/>
		<path d="M197.59,11.84c-3.8-2.42-8.9,1.35-4.58,4.63-.56-1.65-1.93-3.46,1.57-4.22,3.62-.05,4.91,6.09.1,7-3.23.63-6.35-1.08-7.42-1.59-4.3-2.05-8.91-5.5-13.51-6.79-9.63-2.7-24.25,1.34-28.14,8.34,2.82-3.23,9.31-7.18,15.61-7.29,2.66.14,4.6,1.53,5.16,3.12.47,1.35.35,3.18-1.45,3.58-2.59.59-2.11-2.57-.88-1.49,0-.93-1.55-.7-1.77.52a1.91,1.91,0,0,0,1.44,2,5.06,5.06,0,0,0,6-2.13,4.87,4.87,0,0,0,.2-4.5c6.18,1.73,10.43,5.64,14.67,7.54,3.33,1.5,8.15,1.81,11.37,0C200.36,18.21,200.54,13.72,197.59,11.84Z"/>
		<path d="M252.53,18.71c-1.27-1.25-1.26-3.34-3.83-3.34a3.55,3.55,0,0,0-.68.07,8.16,8.16,0,0,1-.27,10.75,3.49,3.49,0,0,0,.75.1c2.2,0,2.92-1.93,4.08-3.26s3.16-1.81,4.91-2.1C255.09,20.54,254.25,20.41,252.53,18.71Z"/>
		<path d="M262.23,21.15a1.72,1.72,0,1,1-1.72-1.72A1.72,1.72,0,0,1,262.23,21.15Z"/>
		<circle cx="264.37" cy="21.15" r="1.29"/>
	</symbol>
</svg>